<?xml version="1.0" encoding="UTF-8"?><svg xmlns="http://www.w3.org/2000/svg" xmlns:xlink="http://www.w3.org/1999/xlink" height="307pt" style="width:1272px;height:307px;" version="1.1" viewBox="0 0 1272 307" width="1272pt">
    <defs>
        <filter height="300%" id="f1" width="300%" x="-1" y="-1">
            <feGaussianBlur result="blurOut" stdDeviation="2.0"/>
            <feColorMatrix in="blurOut" result="blurOut2" type="matrix" values="0 0 0 0 0 0 0 0 0 0 0 0 0 0 0 0 0 0 .4 0"/>
            <feOffset dx="4.0" dy="4.0" in="blurOut2" result="blurOut3"/>
            <feBlend in="SourceGraphic" in2="blurOut3" mode="normal"/>
        </filter>
    </defs>
    <g>
        <polygon fill="#FFFFFF" filter="url(#f1)" points="22,24,201,24,208,46.2969,1265,46.2969,1265,300,22,300,22,24" style="stroke: #000000; stroke-width: 2.0;"/>
        <line style="stroke: #000000; stroke-width: 2.0;" x1="22" x2="208" y1="46.2969" y2="46.2969"/>
        <text fill="#000000" font-family="sans-serif" font-size="14" font-weight="bold" lengthAdjust="spacingAndGlyphs" textLength="173" x="25" y="39.9951">ui.component.relation</text>
        <polygon fill="#FFFFFF" filter="url(#f1)" points="870,68,951,68,958,90.2969,1241,90.2969,1241,276,870,276,870,68" style="stroke: #000000; stroke-width: 2.0;"/>
        <line style="stroke: #000000; stroke-width: 2.0;" x1="870" x2="958" y1="90.2969" y2="90.2969"/>
        <text fill="#000000" font-family="sans-serif" font-size="14" font-weight="bold" lengthAdjust="spacingAndGlyphs" textLength="75" x="873" y="83.9951">usecases</text>
        <polygon fill="#FFFFFF" filter="url(#f1)" points="242,68,288,68,295,90.2969,846,90.2969,846,276,242,276,242,68" style="stroke: #000000; stroke-width: 2.0;"/>
        <line style="stroke: #000000; stroke-width: 2.0;" x1="242" x2="295" y1="90.2969" y2="90.2969"/>
        <text fill="#000000" font-family="sans-serif" font-size="14" font-weight="bold" lengthAdjust="spacingAndGlyphs" textLength="40" x="245" y="83.9951">class</text>
        <polygon fill="#FFFFFF" filter="url(#f1)" points="46,68,119,68,126,90.2969,218,90.2969,218,168,46,168,46,68" style="stroke: #000000; stroke-width: 2.0;"/>
        <line style="stroke: #000000; stroke-width: 2.0;" x1="46" x2="126" y1="90.2969" y2="90.2969"/>
        <text fill="#000000" font-family="sans-serif" font-size="14" font-weight="bold" lengthAdjust="spacingAndGlyphs" textLength="67" x="49" y="83.9951">common</text>
        <rect fill="#FEFECE" filter="url(#f1)" height="48" style="stroke: #A80036; stroke-width: 1.5;" width="152" x="886" y="104"/>
        <ellipse cx="901" cy="120" fill="#ADD1B2" rx="11" ry="11" style="stroke: #A80036; stroke-width: 1.0;"/>
        <path d="M903.9688,125.6406 Q903.3906,125.9375 902.75,126.0859 Q902.1094,126.2344 901.4063,126.2344 Q898.9063,126.2344 897.5859,124.5859 Q896.2656,122.9375 896.2656,119.8125 Q896.2656,116.6875 897.5859,115.0313 Q898.9063,113.375 901.4063,113.375 Q902.1094,113.375 902.7578,113.5313 Q903.4063,113.6875 903.9688,113.9844 L903.9688,116.7031 Q903.3438,116.125 902.75,115.8516 Q902.1563,115.5781 901.5313,115.5781 Q900.1875,115.5781 899.5,116.6484 Q898.8125,117.7188 898.8125,119.8125 Q898.8125,121.9063 899.5,122.9766 Q900.1875,124.0469 901.5313,124.0469 Q902.1563,124.0469 902.75,123.7734 Q903.3438,123.5 903.9688,122.9219 L903.9688,125.6406 Z "/>
        <text fill="#000000" font-family="sans-serif" font-size="12" lengthAdjust="spacingAndGlyphs" textLength="120" x="915" y="124.1543">AssociationGraphic</text>
        <line style="stroke: #A80036; stroke-width: 1.5;" x1="887" x2="1037" y1="136" y2="136"/>
        <line style="stroke: #A80036; stroke-width: 1.5;" x1="887" x2="1037" y1="144" y2="144"/>
        <rect fill="#FEFECE" filter="url(#f1)" height="48" style="stroke: #A80036; stroke-width: 1.5;" width="139" x="1079.75" y="104"/>
        <ellipse cx="1094.75" cy="120" fill="#ADD1B2" rx="11" ry="11" style="stroke: #A80036; stroke-width: 1.0;"/>
        <path d="M1097.7188,125.6406 Q1097.1406,125.9375 1096.5,126.0859 Q1095.8594,126.2344 1095.1563,126.2344 Q1092.6563,126.2344 1091.3359,124.5859 Q1090.0156,122.9375 1090.0156,119.8125 Q1090.0156,116.6875 1091.3359,115.0313 Q1092.6563,113.375 1095.1563,113.375 Q1095.8594,113.375 1096.5078,113.5313 Q1097.1563,113.6875 1097.7188,113.9844 L1097.7188,116.7031 Q1097.0938,116.125 1096.5,115.8516 Q1095.9063,115.5781 1095.2813,115.5781 Q1093.9375,115.5781 1093.25,116.6484 Q1092.5625,117.7188 1092.5625,119.8125 Q1092.5625,121.9063 1093.25,122.9766 Q1093.9375,124.0469 1095.2813,124.0469 Q1095.9063,124.0469 1096.5,123.7734 Q1097.0938,123.5 1097.7188,122.9219 L1097.7188,125.6406 Z "/>
        <text fill="#000000" font-family="sans-serif" font-size="12" lengthAdjust="spacingAndGlyphs" textLength="107" x="1108.75" y="124.1543">ExtentionGraphic</text>
        <line style="stroke: #A80036; stroke-width: 1.5;" x1="1080.75" x2="1217.75" y1="136" y2="136"/>
        <line style="stroke: #A80036; stroke-width: 1.5;" x1="1080.75" x2="1217.75" y1="144" y2="144"/>
        <rect fill="#FEFECE" filter="url(#f1)" height="48" style="stroke: #A80036; stroke-width: 1.5;" width="135" x="886.75" y="212"/>
        <ellipse cx="901.75" cy="228" fill="#ADD1B2" rx="11" ry="11" style="stroke: #A80036; stroke-width: 1.0;"/>
        <path d="M904.7188,233.6406 Q904.1406,233.9375 903.5,234.0859 Q902.8594,234.2344 902.1563,234.2344 Q899.6563,234.2344 898.3359,232.5859 Q897.0156,230.9375 897.0156,227.8125 Q897.0156,224.6875 898.3359,223.0313 Q899.6563,221.375 902.1563,221.375 Q902.8594,221.375 903.5078,221.5313 Q904.1563,221.6875 904.7188,221.9844 L904.7188,224.7031 Q904.0938,224.125 903.5,223.8516 Q902.9063,223.5781 902.2813,223.5781 Q900.9375,223.5781 900.25,224.6484 Q899.5625,225.7188 899.5625,227.8125 Q899.5625,229.9063 900.25,230.9766 Q900.9375,232.0469 902.2813,232.0469 Q902.9063,232.0469 903.5,231.7734 Q904.0938,231.5 904.7188,230.9219 L904.7188,233.6406 Z "/>
        <text fill="#000000" font-family="sans-serif" font-size="12" lengthAdjust="spacingAndGlyphs" textLength="103" x="915.75" y="232.1543">InclusionGraphic</text>
        <line style="stroke: #A80036; stroke-width: 1.5;" x1="887.75" x2="1020.75" y1="244" y2="244"/>
        <line style="stroke: #A80036; stroke-width: 1.5;" x1="887.75" x2="1020.75" y1="252" y2="252"/>
        <rect fill="#FEFECE" filter="url(#f1)" height="48" style="stroke: #A80036; stroke-width: 1.5;" width="169" x="1056.75" y="212"/>
        <ellipse cx="1071.75" cy="228" fill="#ADD1B2" rx="11" ry="11" style="stroke: #A80036; stroke-width: 1.0;"/>
        <path d="M1074.7188,233.6406 Q1074.1406,233.9375 1073.5,234.0859 Q1072.8594,234.2344 1072.1563,234.2344 Q1069.6563,234.2344 1068.3359,232.5859 Q1067.0156,230.9375 1067.0156,227.8125 Q1067.0156,224.6875 1068.3359,223.0313 Q1069.6563,221.375 1072.1563,221.375 Q1072.8594,221.375 1073.5078,221.5313 Q1074.1563,221.6875 1074.7188,221.9844 L1074.7188,224.7031 Q1074.0938,224.125 1073.5,223.8516 Q1072.9063,223.5781 1072.2813,223.5781 Q1070.9375,223.5781 1070.25,224.6484 Q1069.5625,225.7188 1069.5625,227.8125 Q1069.5625,229.9063 1070.25,230.9766 Q1070.9375,232.0469 1072.2813,232.0469 Q1072.9063,232.0469 1073.5,231.7734 Q1074.0938,231.5 1074.7188,230.9219 L1074.7188,233.6406 Z "/>
        <text fill="#000000" font-family="sans-serif" font-size="12" lengthAdjust="spacingAndGlyphs" textLength="137" x="1085.75" y="232.1543">GeneralizationGraphic</text>
        <line style="stroke: #A80036; stroke-width: 1.5;" x1="1057.75" x2="1224.75" y1="244" y2="244"/>
        <line style="stroke: #A80036; stroke-width: 1.5;" x1="1057.75" x2="1224.75" y1="252" y2="252"/>
        <rect fill="#FEFECE" filter="url(#f1)" height="48" style="stroke: #A80036; stroke-width: 1.5;" width="157" x="258.75" y="104"/>
        <ellipse cx="273.75" cy="120" fill="#ADD1B2" rx="11" ry="11" style="stroke: #A80036; stroke-width: 1.0;"/>
        <path d="M276.7188,125.6406 Q276.1406,125.9375 275.5,126.0859 Q274.8594,126.2344 274.1563,126.2344 Q271.6563,126.2344 270.3359,124.5859 Q269.0156,122.9375 269.0156,119.8125 Q269.0156,116.6875 270.3359,115.0313 Q271.6563,113.375 274.1563,113.375 Q274.8594,113.375 275.5078,113.5313 Q276.1563,113.6875 276.7188,113.9844 L276.7188,116.7031 Q276.0938,116.125 275.5,115.8516 Q274.9063,115.5781 274.2813,115.5781 Q272.9375,115.5781 272.25,116.6484 Q271.5625,117.7188 271.5625,119.8125 Q271.5625,121.9063 272.25,122.9766 Q272.9375,124.0469 274.2813,124.0469 Q274.9063,124.0469 275.5,123.7734 Q276.0938,123.5 276.7188,122.9219 L276.7188,125.6406 Z "/>
        <text fill="#000000" font-family="sans-serif" font-size="12" lengthAdjust="spacingAndGlyphs" textLength="125" x="287.75" y="124.1543">CompositionGraphic</text>
        <line style="stroke: #A80036; stroke-width: 1.5;" x1="259.75" x2="414.75" y1="136" y2="136"/>
        <line style="stroke: #A80036; stroke-width: 1.5;" x1="259.75" x2="414.75" y1="144" y2="144"/>
        <rect fill="#FEFECE" filter="url(#f1)" height="48" style="stroke: #A80036; stroke-width: 1.5;" width="149" x="450.75" y="104"/>
        <ellipse cx="465.75" cy="120" fill="#ADD1B2" rx="11" ry="11" style="stroke: #A80036; stroke-width: 1.0;"/>
        <path d="M468.7188,125.6406 Q468.1406,125.9375 467.5,126.0859 Q466.8594,126.2344 466.1563,126.2344 Q463.6563,126.2344 462.3359,124.5859 Q461.0156,122.9375 461.0156,119.8125 Q461.0156,116.6875 462.3359,115.0313 Q463.6563,113.375 466.1563,113.375 Q466.8594,113.375 467.5078,113.5313 Q468.1563,113.6875 468.7188,113.9844 L468.7188,116.7031 Q468.0938,116.125 467.5,115.8516 Q466.9063,115.5781 466.2813,115.5781 Q464.9375,115.5781 464.25,116.6484 Q463.5625,117.7188 463.5625,119.8125 Q463.5625,121.9063 464.25,122.9766 Q464.9375,124.0469 466.2813,124.0469 Q466.9063,124.0469 467.5,123.7734 Q468.0938,123.5 468.7188,122.9219 L468.7188,125.6406 Z "/>
        <text fill="#000000" font-family="sans-serif" font-size="12" lengthAdjust="spacingAndGlyphs" textLength="117" x="479.75" y="124.1543">AgregationGraphic</text>
        <line style="stroke: #A80036; stroke-width: 1.5;" x1="451.75" x2="598.75" y1="136" y2="136"/>
        <line style="stroke: #A80036; stroke-width: 1.5;" x1="451.75" x2="598.75" y1="144" y2="144"/>
        <rect fill="#FEFECE" filter="url(#f1)" height="48" style="stroke: #A80036; stroke-width: 1.5;" width="196" x="634.5" y="104"/>
        <ellipse cx="649.5" cy="120" fill="#ADD1B2" rx="11" ry="11" style="stroke: #A80036; stroke-width: 1.0;"/>
        <path d="M652.4688,125.6406 Q651.8906,125.9375 651.25,126.0859 Q650.6094,126.2344 649.9063,126.2344 Q647.4063,126.2344 646.0859,124.5859 Q644.7656,122.9375 644.7656,119.8125 Q644.7656,116.6875 646.0859,115.0313 Q647.4063,113.375 649.9063,113.375 Q650.6094,113.375 651.2578,113.5313 Q651.9063,113.6875 652.4688,113.9844 L652.4688,116.7031 Q651.8438,116.125 651.25,115.8516 Q650.6563,115.5781 650.0313,115.5781 Q648.6875,115.5781 648,116.6484 Q647.3125,117.7188 647.3125,119.8125 Q647.3125,121.9063 648,122.9766 Q648.6875,124.0469 650.0313,124.0469 Q650.6563,124.0469 651.25,123.7734 Q651.8438,123.5 652.4688,122.9219 L652.4688,125.6406 Z "/>
        <text fill="#000000" font-family="sans-serif" font-size="12" lengthAdjust="spacingAndGlyphs" textLength="164" x="663.5" y="124.1543">DoubleAssociationGraphic</text>
        <line style="stroke: #A80036; stroke-width: 1.5;" x1="635.5" x2="829.5" y1="136" y2="136"/>
        <line style="stroke: #A80036; stroke-width: 1.5;" x1="635.5" x2="829.5" y1="144" y2="144"/>
        <rect fill="#FEFECE" filter="url(#f1)" height="48" style="stroke: #A80036; stroke-width: 1.5;" width="160" x="258" y="212"/>
        <ellipse cx="273" cy="228" fill="#ADD1B2" rx="11" ry="11" style="stroke: #A80036; stroke-width: 1.0;"/>
        <path d="M275.9688,233.6406 Q275.3906,233.9375 274.75,234.0859 Q274.1094,234.2344 273.4063,234.2344 Q270.9063,234.2344 269.5859,232.5859 Q268.2656,230.9375 268.2656,227.8125 Q268.2656,224.6875 269.5859,223.0313 Q270.9063,221.375 273.4063,221.375 Q274.1094,221.375 274.7578,221.5313 Q275.4063,221.6875 275.9688,221.9844 L275.9688,224.7031 Q275.3438,224.125 274.75,223.8516 Q274.1563,223.5781 273.5313,223.5781 Q272.1875,223.5781 271.5,224.6484 Q270.8125,225.7188 270.8125,227.8125 Q270.8125,229.9063 271.5,230.9766 Q272.1875,232.0469 273.5313,232.0469 Q274.1563,232.0469 274.75,231.7734 Q275.3438,231.5 275.9688,230.9219 L275.9688,233.6406 Z "/>
        <text fill="#000000" font-family="sans-serif" font-size="12" lengthAdjust="spacingAndGlyphs" textLength="128" x="287" y="232.1543">DependanceGraphic</text>
        <line style="stroke: #A80036; stroke-width: 1.5;" x1="259" x2="417" y1="244" y2="244"/>
        <line style="stroke: #A80036; stroke-width: 1.5;" x1="259" x2="417" y1="252" y2="252"/>
        <rect fill="#FEFECE" filter="url(#f1)" height="48" style="stroke: #A80036; stroke-width: 1.5;" width="151" x="460.75" y="212"/>
        <ellipse cx="475.75" cy="228" fill="#ADD1B2" rx="11" ry="11" style="stroke: #A80036; stroke-width: 1.0;"/>
        <path d="M478.7188,233.6406 Q478.1406,233.9375 477.5,234.0859 Q476.8594,234.2344 476.1563,234.2344 Q473.6563,234.2344 472.3359,232.5859 Q471.0156,230.9375 471.0156,227.8125 Q471.0156,224.6875 472.3359,223.0313 Q473.6563,221.375 476.1563,221.375 Q476.8594,221.375 477.5078,221.5313 Q478.1563,221.6875 478.7188,221.9844 L478.7188,224.7031 Q478.0938,224.125 477.5,223.8516 Q476.9063,223.5781 476.2813,223.5781 Q474.9375,223.5781 474.25,224.6484 Q473.5625,225.7188 473.5625,227.8125 Q473.5625,229.9063 474.25,230.9766 Q474.9375,232.0469 476.2813,232.0469 Q476.9063,232.0469 477.5,231.7734 Q478.0938,231.5 478.7188,230.9219 L478.7188,233.6406 Z "/>
        <text fill="#000000" font-family="sans-serif" font-size="12" lengthAdjust="spacingAndGlyphs" textLength="119" x="489.75" y="232.1543">InheritanceGraphic</text>
        <line style="stroke: #A80036; stroke-width: 1.5;" x1="461.75" x2="610.75" y1="244" y2="244"/>
        <line style="stroke: #A80036; stroke-width: 1.5;" x1="461.75" x2="610.75" y1="252" y2="252"/>
        <rect fill="#FEFECE" filter="url(#f1)" height="48" style="stroke: #A80036; stroke-width: 1.5;" width="177" x="649.75" y="212"/>
        <ellipse cx="664.75" cy="228" fill="#ADD1B2" rx="11" ry="11" style="stroke: #A80036; stroke-width: 1.0;"/>
        <path d="M667.7188,233.6406 Q667.1406,233.9375 666.5,234.0859 Q665.8594,234.2344 665.1563,234.2344 Q662.6563,234.2344 661.3359,232.5859 Q660.0156,230.9375 660.0156,227.8125 Q660.0156,224.6875 661.3359,223.0313 Q662.6563,221.375 665.1563,221.375 Q665.8594,221.375 666.5078,221.5313 Q667.1563,221.6875 667.7188,221.9844 L667.7188,224.7031 Q667.0938,224.125 666.5,223.8516 Q665.9063,223.5781 665.2813,223.5781 Q663.9375,223.5781 663.25,224.6484 Q662.5625,225.7188 662.5625,227.8125 Q662.5625,229.9063 663.25,230.9766 Q663.9375,232.0469 665.2813,232.0469 Q665.9063,232.0469 666.5,231.7734 Q667.0938,231.5 667.7188,230.9219 L667.7188,233.6406 Z "/>
        <text fill="#000000" font-family="sans-serif" font-size="12" lengthAdjust="spacingAndGlyphs" textLength="145" x="678.75" y="232.1543">ImplementationGraphic</text>
        <line style="stroke: #A80036; stroke-width: 1.5;" x1="650.75" x2="825.75" y1="244" y2="244"/>
        <line style="stroke: #A80036; stroke-width: 1.5;" x1="650.75" x2="825.75" y1="252" y2="252"/>
        <rect fill="#FEFECE" filter="url(#f1)" height="48" style="stroke: #A80036; stroke-width: 1.5;" width="139" x="62.75" y="104"/>
        <ellipse cx="77.75" cy="120" fill="#A9DCDF" rx="11" ry="11" style="stroke: #A80036; stroke-width: 1.0;"/>
        <path d="M77.8594,115.3438 L76.7031,120.4219 L79.0313,120.4219 L77.8594,115.3438 Z M76.375,113.1094 L79.3594,113.1094 L82.7188,125.5 L80.2656,125.5 L79.5,122.4375 L76.2188,122.4375 L75.4688,125.5 L73.0313,125.5 L76.375,113.1094 Z "/>
        <text fill="#000000" font-family="sans-serif" font-size="12" font-style="italic" lengthAdjust="spacingAndGlyphs" textLength="107" x="91.75" y="124.1543">ARelationGraphic</text>
        <line style="stroke: #A80036; stroke-width: 1.5;" x1="63.75" x2="200.75" y1="136" y2="136"/>
        <line style="stroke: #A80036; stroke-width: 1.5;" x1="63.75" x2="200.75" y1="144" y2="144"/>
    </g>
</svg>
